<svg viewBox="0 0 48 48" fill="none" xmlns="http://www.w3.org/2000/svg">
  <defs>
    <linearGradient id="bodyGradient" x1="0%" y1="0%" x2="100%" y2="100%">
      <stop offset="0%" stop-color="rgb(34, 197, 94)" />
      <stop offset="50%" stop-color="rgb(16, 185, 129)" />
      <stop offset="100%" stop-color="rgb(5, 150, 105)" />
    </linearGradient>
    <linearGradient id="eyeGradient" x1="0%" y1="0%" x2="100%" y2="100%">
      <stop offset="0%" stop-color="rgb(59, 130, 246)" />
      <stop offset="100%" stop-color="rgb(37, 99, 235)" />
    </linearGradient>
  </defs>

  <!-- Robot body -->
  <rect x="8" y="12" width="32" height="24" rx="4" fill="url(#bodyGradient)" stroke="rgba(255,255,255,0.2)" stroke-width="1"/>
  
  <!-- Robot head -->
  <rect x="12" y="8" width="24" height="16" rx="3" fill="url(#bodyGradient)" stroke="rgba(255,255,255,0.2)" stroke-width="1"/>

  <!-- Eyes -->
  <circle cx="18" cy="16" r="3" fill="url(#eyeGradient)"/>
  <circle cx="30" cy="16" r="3" fill="url(#eyeGradient)"/>
  
  <!-- Eye highlights -->
  <circle cx="19" cy="15" r="1" fill="rgba(255,255,255,0.8)" />
  <circle cx="31" cy="15" r="1" fill="rgba(255,255,255,0.8)" />

  <!-- Mouth -->
  <rect x="20" y="19" width="8" height="2" rx="1" fill="rgba(255,255,255,0.6)"/>

  <!-- Antenna -->
  <circle cx="24" cy="6" r="2" fill="url(#bodyGradient)" />
  <line x1="24" y1="8" x2="24" y2="12" stroke="url(#bodyGradient)" stroke-width="2" stroke-linecap="round"/>

  <!-- Arms -->
  <rect x="4" y="18" width="6" height="3" rx="1.5" fill="url(#bodyGradient)"/>
  <rect x="38" y="18" width="6" height="3" rx="1.5" fill="url(#bodyGradient)"/>

  <!-- Legs -->
  <rect x="14" y="36" width="4" height="8" rx="2" fill="url(#bodyGradient)"/>
  <rect x="30" y="36" width="4" height="8" rx="2" fill="url(#bodyGradient)"/>

  <!-- Body details -->
  <circle cx="16" cy="24" r="1.5" fill="rgba(255,255,255,0.4)" />
  <circle cx="24" cy="26" r="1.5" fill="rgba(255,255,255,0.4)" />
  <circle cx="32" cy="24" r="1.5" fill="rgba(255,255,255,0.4)" />

  <!-- Chest panel -->
  <rect x="18" y="28" width="12" height="4" rx="2" fill="rgba(255,255,255,0.1)" stroke="rgba(255,255,255,0.3)" stroke-width="0.5"/>
</svg>